<svg width="200" height="200" viewBox="0 0 200 200" xmlns="http://www.w3.org/2000/svg">
    <path d="M100 10a90 90 0 1 1 0 180 90 90 0 0 1 0-180" fill="none" stroke="#ff6f5c" stroke-width="20" stroke-dasharray="283 283" stroke-dashoffset="141.5"/>
    <path d="M10 100a90 90 0 1 0 180 0 90 90 0 0 0-180 0" fill="none" stroke="#9ca3af" stroke-width="20" stroke-dasharray="283 283"/>
    <path d="M150.554 102.475a3.5 3.5 0 0 0 0-4.95L128.28 75.251a3.5 3.5 0 0 0-4.95 0c-1.366 1.367-1.366 3.583 0 3.95L143.13 100l-19.8 19.799a3.5 3.5 0 1 0 4.95 4.95zM61.579 100v3h80v-6h-80z" fill="#ea4b71" stroke="#ea4b71" stroke-width="10"/>
    <circle cx="190" cy="100" r="10" fill="#ff6f5c"/>
    <circle cx="10" cy="100" r="10" fill="#9ca3af"/>
    <circle cx="54.079" cy="100" r="8" fill="#ea4b71"/>
</svg>
